<svg width="18" height="12" viewBox="0 0 18 12" fill="none" xmlns="http://www.w3.org/2000/svg">
<path d="M10.6563 2.25C10.6563 2.12568 10.7056 2.00645 10.7935 1.91854C10.8815 1.83064 11.0007 1.78125 11.125 1.78125H16.125C16.2493 1.78125 16.3686 1.83064 16.4565 1.91854C16.5444 2.00645 16.5938 2.12568 16.5938 2.25C16.5938 2.37432 16.5444 2.49355 16.4565 2.58146C16.3686 2.66936 16.2493 2.71875 16.125 2.71875H11.125C11.0007 2.71875 10.8815 2.66936 10.7935 2.58146C10.7056 2.49355 10.6563 2.37432 10.6563 2.25ZM17.2188 7.875C17.2188 7.99932 17.1694 8.11855 17.0815 8.20646C16.9936 8.29436 16.8743 8.34375 16.75 8.34375H11.0078C11.1193 8.95692 11.4422 9.5116 11.9204 9.91128C12.3986 10.311 13.0018 10.5303 13.625 10.5312C13.974 10.5334 14.3198 10.4654 14.6419 10.3312C14.964 10.197 15.2558 9.99932 15.5 9.75C15.5889 9.66362 15.708 9.6153 15.832 9.6153C15.956 9.6153 16.0751 9.66362 16.1641 9.75C16.2087 9.793 16.2442 9.84457 16.2685 9.90162C16.2928 9.95867 16.3053 10.02 16.3053 10.082C16.3053 10.144 16.2928 10.2054 16.2685 10.2624C16.2442 10.3195 16.2087 10.3711 16.1641 10.4141C15.5756 11.0015 14.8017 11.3668 13.9741 11.4475C13.1466 11.5283 12.3166 11.3196 11.6257 10.8571C10.9348 10.3945 10.4256 9.70663 10.185 8.91072C9.9444 8.1148 9.98722 7.26008 10.3062 6.49221C10.6251 5.72433 11.2005 5.09082 11.9342 4.69963C12.6679 4.30843 13.5146 4.18376 14.3299 4.34686C15.1453 4.50996 15.8788 4.95074 16.4056 5.59408C16.9323 6.23742 17.2197 7.04351 17.2188 7.875ZM16.2422 7.40625C16.1353 6.78967 15.8141 6.23064 15.3353 5.82772C14.8565 5.4248 14.2508 5.20387 13.625 5.20387C12.9992 5.20387 12.3935 5.4248 11.9147 5.82772C11.4359 6.23064 11.1147 6.78967 11.0078 7.40625H16.2422ZM8.78125 8.34375C8.78125 9.17255 8.45201 9.96741 7.86596 10.5535C7.27991 11.1395 6.48505 11.4688 5.65625 11.4688H0.5C0.37568 11.4688 0.256451 11.4194 0.168544 11.3315C0.080636 11.2435 0.03125 11.1243 0.03125 11V1C0.03125 0.87568 0.080636 0.756451 0.168544 0.668544C0.256451 0.580636 0.37568 0.53125 0.5 0.53125H4.71875C5.28119 0.531171 5.83073 0.699724 6.2964 1.01514C6.76207 1.33055 7.12247 1.77834 7.33106 2.30066C7.53966 2.82299 7.58686 3.39586 7.46657 3.94528C7.34627 4.4947 7.06402 4.99544 6.65625 5.38281C7.27568 5.59203 7.81388 5.99026 8.19509 6.52143C8.5763 7.05259 8.7813 7.68995 8.78125 8.34375ZM0.96875 5.21875H4.71875C5.21603 5.21875 5.69295 5.02121 6.04458 4.66958C6.39621 4.31794 6.59375 3.84103 6.59375 3.34375C6.59375 2.84647 6.39621 2.36956 6.04458 2.01792C5.69295 1.66629 5.21603 1.46875 4.71875 1.46875H0.96875V5.21875ZM7.84375 8.34375C7.84169 7.76422 7.61056 7.20902 7.20077 6.79923C6.79098 6.38944 6.23578 6.15831 5.65625 6.15625H0.96875V10.5312H5.65625C6.23578 10.5292 6.79098 10.2981 7.20077 9.88827C7.61056 9.47848 7.84169 8.92328 7.84375 8.34375Z" fill="#FFFEF6"/>
</svg>
