<svg width="18" height="15" viewBox="0 0 18 15" fill="none" xmlns="http://www.w3.org/2000/svg">
<path d="M17.1796 2.44535C17.1443 2.36028 17.0848 2.2875 17.0083 2.23609C16.9319 2.18468 16.8421 2.15692 16.75 2.15628H14.2812C13.9761 1.59583 13.5272 1.12674 12.9807 0.797214C12.4343 0.467687 11.8099 0.28961 11.1718 0.281284C10.2131 0.277116 9.29178 0.652914 8.60947 1.32643C7.92717 1.99995 7.53946 2.91634 7.53121 3.87503V4.55472C4.21871 3.76566 1.48433 1.07035 1.45308 1.04691C1.39285 0.987453 1.31765 0.945411 1.23546 0.925247C1.15326 0.905083 1.06714 0.907548 0.986233 0.932381C0.905326 0.957214 0.832651 1.00349 0.775921 1.06629C0.719192 1.1291 0.680524 1.20609 0.664021 1.2891C-0.0156663 5.00785 1.10152 7.49222 2.15621 8.92191C2.71558 9.68742 3.40273 10.3508 4.18746 10.8828C2.97652 12.3516 0.984334 13.1172 0.960896 13.125C0.894335 13.1495 0.834328 13.1891 0.785546 13.2406C0.736764 13.2921 0.700524 13.3541 0.679646 13.4219C0.657477 13.4881 0.650879 13.5584 0.660364 13.6275C0.66985 13.6966 0.695164 13.7626 0.734334 13.8203C0.812459 13.9375 1.57808 14.9688 4.24996 14.9688C9.69527 14.9688 14.25 10.7578 14.6875 5.3516L17.0781 2.95316C17.1458 2.88967 17.1921 2.80659 17.2103 2.71553C17.2285 2.62448 17.2178 2.53001 17.1796 2.44535ZM13.8984 4.81253C13.8171 4.89361 13.7697 5.0025 13.7656 5.11722C13.4453 10.1172 9.26558 14.0313 4.24996 14.0313C3.16402 14.0313 2.46871 13.8438 2.05465 13.6563C2.93746 13.211 4.38277 12.336 5.26558 11.0078C5.30075 10.9528 5.32442 10.8912 5.33516 10.8267C5.3459 10.7623 5.3435 10.6963 5.32808 10.6328C5.31143 10.5679 5.28125 10.5072 5.23951 10.4547C5.19778 10.4021 5.14543 10.359 5.0859 10.3282C5.07027 10.3282 3.8984 9.71878 2.88277 8.32816C1.67183 6.67191 1.19527 4.64847 1.4609 2.31253C2.60152 3.28128 5.06246 5.10941 7.92183 5.58597C7.98913 5.59875 8.05843 5.59638 8.1247 5.57901C8.19096 5.56164 8.25252 5.52972 8.3049 5.48558C8.35728 5.44143 8.39916 5.38616 8.4275 5.32379C8.45583 5.26143 8.46991 5.19353 8.46871 5.12503V3.87503C8.4749 3.16705 8.76102 2.49029 9.26458 1.99259C9.76814 1.49488 10.4482 1.21669 11.1562 1.21878C11.6678 1.22617 12.1665 1.38028 12.593 1.66281C13.0196 1.94533 13.3561 2.34438 13.5625 2.81253C13.5981 2.89675 13.658 2.96846 13.7345 3.01854C13.811 3.06863 13.9007 3.09482 13.9921 3.09378H15.6171L13.8984 4.81253Z" fill="#FFFEF6"/>
</svg>
