<svg width="16" height="16" viewBox="0 0 16 16" fill="none" xmlns="http://www.w3.org/2000/svg">
<path d="M8 4.40625C7.28922 4.40625 6.59441 4.61702 6.00342 5.01191C5.41243 5.40679 4.95181 5.96806 4.67981 6.62473C4.40781 7.2814 4.33664 8.00399 4.4753 8.70111C4.61397 9.39822 4.95624 10.0386 5.45884 10.5412C5.96143 11.0438 6.60178 11.386 7.29889 11.5247C7.99601 11.6634 8.7186 11.5922 9.37527 11.3202C10.0319 11.0482 10.5932 10.5876 10.9881 9.99658C11.383 9.40559 11.5938 8.71078 11.5938 8C11.5938 7.04688 11.2151 6.13279 10.5412 5.45884C9.86721 4.78488 8.95312 4.40625 8 4.40625ZM8 10.6562C7.47464 10.6562 6.96108 10.5005 6.52427 10.2086C6.08745 9.91672 5.74699 9.50187 5.54595 9.0165C5.3449 8.53114 5.2923 7.99705 5.39479 7.48179C5.49728 6.96653 5.75026 6.49323 6.12175 6.12175C6.49323 5.75026 6.96653 5.49728 7.48179 5.39479C7.99705 5.2923 8.53114 5.3449 9.0165 5.54595C9.50187 5.74699 9.91672 6.08745 10.2086 6.52427C10.5005 6.96108 10.6562 7.47464 10.6562 8C10.6542 8.70385 10.3737 9.37828 9.87597 9.87597C9.37828 10.3737 8.70385 10.6542 8 10.6562ZM11.4375 0.34375H4.5625C3.44362 0.34375 2.37056 0.788224 1.57939 1.57939C0.788224 2.37056 0.34375 3.44362 0.34375 4.5625V11.4375C0.34375 12.5564 0.788224 13.6294 1.57939 14.4206C2.37056 15.2118 3.44362 15.6562 4.5625 15.6562H11.4375C12.5564 15.6562 13.6294 15.2118 14.4206 14.4206C15.2118 13.6294 15.6562 12.5564 15.6562 11.4375V4.5625C15.6562 3.44362 15.2118 2.37056 14.4206 1.57939C13.6294 0.788224 12.5564 0.34375 11.4375 0.34375ZM14.7188 11.4375C14.7188 12.3077 14.373 13.1423 13.7577 13.7577C13.1423 14.373 12.3077 14.7188 11.4375 14.7188H4.5625C3.69226 14.7188 2.85766 14.373 2.24231 13.7577C1.62695 13.1423 1.28125 12.3077 1.28125 11.4375V4.5625C1.28125 3.69226 1.62695 2.85766 2.24231 2.24231C2.85766 1.62695 3.69226 1.28125 4.5625 1.28125H11.4375C12.3077 1.28125 13.1423 1.62695 13.7577 2.24231C14.373 2.85766 14.7188 3.69226 14.7188 4.5625V11.4375ZM12.8438 3.9375C12.8438 4.09202 12.7979 4.24306 12.7121 4.37154C12.6262 4.50002 12.5042 4.60015 12.3615 4.65928C12.2187 4.71841 12.0616 4.73388 11.9101 4.70374C11.7585 4.67359 11.6193 4.59919 11.5101 4.48993C11.4008 4.38067 11.3264 4.24146 11.2963 4.08991C11.2661 3.93837 11.2816 3.78128 11.3407 3.63853C11.3998 3.49577 11.5 3.37376 11.6285 3.28791C11.7569 3.20207 11.908 3.15625 12.0625 3.15625C12.2697 3.15625 12.4684 3.23856 12.6149 3.38507C12.7614 3.53159 12.8438 3.7303 12.8438 3.9375Z" fill="#FFFEF6"/>
</svg>
